# xmcd
#
# Track frame offsets:
#	183
#	13853
#	28815
#	40125
#	52640
#	62938
#	72643
#	83388
#	93720
#	108903
#	121903
#	131518
#	146375
#	157198
#	169165
#	184020
#	197813
#	210153
#
# Disc length: 3002
#
# Revision: 2
# Processed by: cddbd v1.5.1PL0 Copyright (c) Steve Scherf et al.
# Submitted via: audiograbber 1.83.01
# Normalized: r1:DSETVAR1
#
DISCID=f60bb812
DTITLE=Various Artist - Country Gold - CD1
DYEAR=2004
DGENRE=Country
TTITLE0=Charley Pride - All I Have To Offer (Is Me)
TTITLE1=Jessie Colter - Take A Message To Laura
TTITLE2=Kenny Price - Northeast Arkansas Mississippi Country Bootlegger
TTITLE3=Jim Ed Brown - Ginger Is Gentle And Waiting For Me
TTITLE4=Skeeter Davis - I'm A Lover (Not A Fighter)
TTITLE5=Norma Jean - Somebody's Gonna Plow Your Field
TTITLE6=Connie Smith - Paper Roses
TTITLE7=Porter Wagoner - Big Wind
TTITLE8=George Hamilton, IV - Canadian Pacific
TTITLE9=Dottie West - Rose Garden
TTITLE10=Chet Atkins and Jerry Reed - All I Ever Need Is You
TTITLE11=Waylor Jennings - Luckenbach, Texas (Back To The Basics Of Love)
TTITLE12=Connie Smith - Just For What I Am
TTITLE13=Dickey Lee - Never Ending Song Of Love
TTITLE14=Connie Smith and Nat Stuckey - Let It Be Me (Je T'appartiens)
TTITLE15=Jim Ed Brown - Morning
TTITLE16=Dolly Parton - In The Ghetto
TTITLE17=Waylor Jennings and Willie Nelson - (Sittin' On) The Dock Of The Bay
EXTD=
EXTT0=
EXTT1=
EXTT2=
EXTT3=
EXTT4=
EXTT5=
EXTT6=
EXTT7=
EXTT8=
EXTT9=
EXTT10=
EXTT11=
EXTT12=
EXTT13=
EXTT14=
EXTT15=
EXTT16=
EXTT17=
PLAYORDER=
